<svg xmlns="http://www.w3.org/2000/svg" id="c" data-name="Icon__x2B__Text" viewBox="568.59 543.33 951.27 922.36">
  <g>
    <g>
      <path d="M915.841,951.709v319.085l119.851,37.212,2.857.89v-461.723l-122.708,104.537ZM944.089,981.068l20.907-15.244v35.296l-20.907,11.754v-31.806ZM944.089,1039.017l20.907-12.421v32.456l-20.907,9.154v-29.188ZM944.089,1097.393l20.907-10.453v35.724l-20.907,6.536v-31.806ZM949.324,1245.951v-72.32l49.224-4.79,2.172,89.309-51.396-12.199ZM1010.318,1107.419l-26.143,8.709v-35.724l26.143-12.199v39.214ZM1010.318,1041.19l-26.143,10.898v-33.978l26.143-16.989v40.069ZM1010.318,974.533l-26.143,16.134v-38.341l26.143-20.052v42.259Z" fill="#0c2344"/>
      <path d="M1163.462,952.137l-122.706-103.27-2.207,1.026-3.422,1.591v456.112l.565.411,3.866,2.857,31.548-9.684,23.766-7.288h.017l19.522-6.005.548-.171,47.306-14.508.085-.12,2.327-3.148v-315.184l-1.215-2.618ZM1041.97,1302.959v-444.135l115.862,97.522v311.061l-.326.103-115.537,35.45Z" fill="#0c2344"/>
      <path d="M1162.355,1272.046l-66.968,22.142-4.675-2.752,70.55-21.852-9.841-5.448-70.435,19.722-6.885-4.383,70.433-20.348-11.27-5.009-94.708,23.791v29.681c48.037-12.58,55.892-4.325,55.892-4.325l67.907-22.726v-8.495Z" fill="#0c2344"/>
      <polygon points="1080.523 1261.203 1131.931 1249.004 1131.931 1176.685 1082.702 1171.892 1080.523 1261.203" fill="#0c2344"/>
      <polygon points="1070.939 1071.255 1070.939 1110.465 1097.078 1119.178 1097.078 1083.454 1070.939 1071.255" fill="#0c2344"/>
      <polygon points="1116.247 1089.989 1116.247 1125.713 1137.159 1132.248 1137.159 1100.444 1116.247 1089.989" fill="#0c2344"/>
      <polygon points="1070.939 1004.164 1070.939 1044.244 1097.078 1055.136 1097.078 1021.154 1070.939 1004.164" fill="#0c2344"/>
      <polygon points="1116.247 1029.65 1116.247 1062.106 1137.159 1071.255 1137.159 1042.066 1116.247 1029.65" fill="#0c2344"/>
      <polygon points="1070.939 935.33 1070.939 977.589 1097.078 993.708 1097.078 955.37 1070.939 935.33" fill="#0c2344"/>
      <polygon points="1116.247 968.875 1116.247 1004.164 1137.159 1015.927 1137.159 984.123 1116.247 968.875" fill="#0c2344"/>
      <polygon points="1198.812 1258.153 1175.843 1269.926 1175.843 964.519 1198.812 983.102 1198.812 1258.153" fill="#0c2344"/>
      <polygon points="1233.236 1240.305 1210.267 1252.396 1210.267 993.708 1233.236 1011.339 1233.236 1240.305" fill="#0c2344"/>
      <polygon points="1265.253 1220.371 1242.284 1236.6 1242.284 1020.476 1265.253 1033.606 1265.253 1220.371" fill="#0c2344"/>
      <polygon points="881.815 1252.049 904.784 1263.821 904.784 958.415 881.815 976.998 881.815 1252.049" fill="#0c2344"/>
      <polygon points="847.391 1234.2 870.36 1246.291 870.36 987.604 847.391 1005.235 847.391 1234.2" fill="#0c2344"/>
      <polygon points="815.374 1214.267 838.343 1230.496 838.343 1014.372 815.374 1027.502 815.374 1214.267" fill="#0c2344"/>
    </g>
    <g>
      <path d="M832.705,960.923c-15.171-48.352-100.576-56.085-104.203-56.391-.503-.042-1.011.004-1.499.14l-68.799,19.01c-1.965.543-3.23,2.384-3.114,4.369l-26.751,5.858-2.316-10.579c-.242-1.109-.916-2.074-1.871-2.687s-2.114-.82-3.223-.577l-48.981,10.725c-2.307.505-3.768,2.786-3.263,5.093l15.676,71.592c.242,1.109.916,2.074,1.871,2.687.693.444,1.495.676,2.307.676.306,0,.612-.033.916-.099l48.981-10.725c2.307-.505,3.768-2.786,3.263-5.093l-2.139-9.768,25.622-5.611c.184.722.528,1.393,1.046,1.931l21.54,22.258-1.868.433c-2.252.523-3.682,2.74-3.228,5.007l63.628,317.479c2.184,10.894,8.528,20.208,17.868,26.228,6.67,4.3,14.24,6.514,21.966,6.514,3.091,0,6.205-.354,9.298-1.071,10.844-2.515,19.998-9.137,25.781-18.647,5.781-9.509,7.447-20.685,4.688-31.468l-80.217-313.614c-.538-2.105-2.553-3.426-4.668-3.164l3.119-25.314c.227-1.022.74-1.702,1.698-2.259,5.372-3.122,19.475-.186,26.955,2.344,19.941,7.596,55.205.499,56.696.193,1.186-.243,2.212-.977,2.827-2.02.613-1.043.757-2.297.396-3.451ZM728.519,913.127c7.761.794,74.032,8.58,92.87,43.034-21.597-14.69-50.452-26.013-75.953-27.434-21.335-1.188-42.908,2.587-62.619,10.821-4.947,2.066-10.757,2.819-13.351,7.753-.523.996-.932,2.159-1.263,3.415l-3.898-19.845,64.214-17.743ZM655.895,936.631l3.258,14.878c-.179-.217-.381-.412-.615-.577-1.176-.825-2.762-.624-4.179-.389-5.078.843-10.576,1.207-15.534,2.578-2.062.57-3.308.99-4.042,1.538l-2.8-12.793,23.911-5.235ZM617.792,995.776c1.206-2.037.571-4.857-.169-7.223-1.556-4.978-3.113-9.956-4.67-14.934-1.617-5.178-3.711-10.92-8.628-13.212-3.255-1.518-7.037-1.14-10.605-.731-4.227.485-7.913.908-10.66,1.876l-5.106-23.319,40.626-8.895,13.846,63.235-14.635,3.204ZM754.794,1325.396l2.322,6.887c-1.014-2.179-1.806-4.477-2.322-6.887ZM817.613,1310.327c2.182,8.534.864,17.378-3.711,24.904-4.575,7.524-11.819,12.764-20.397,14.755l-79.166-343.427-1.25.081,25.343-5.877,79.181,309.564ZM741.541,956.457c-3.131,1.816-5.146,4.635-5.829,8.15-.018.097-.035.194-.047.292l-3.276,26.585-11.856,3.503c.132-.279.249-.562.332-.855.857-3.017-1.19-8.51-1.544-11.649-.406-3.607-.576-7.246-.063-10.853,1.071-7.528,5.093-15.067,11.951-18.349,6.08-2.91,13.34-2.049,19.701.181.48.168.952.356,1.427.538-4.017.067-7.838.742-10.795,2.457Z" fill="#0c2344"/>
      <path d="M740.873,1098.475c3.303,0,3.308-5.133,0-5.133s-3.308,5.133,0,5.133Z" fill="#0c2344"/>
      <path d="M751.462,1096.229c3.303,0,3.308-5.133,0-5.133s-3.308,5.133,0,5.133Z" fill="#0c2344"/>
      <path d="M754.351,1107.139c3.303,0,3.308-5.133,0-5.133s-3.308,5.133,0,5.133Z" fill="#0c2344"/>
      <path d="M743.761,1109.386c3.303,0,3.308-5.133,0-5.133s-3.308,5.133,0,5.133Z" fill="#0c2344"/>
      <path d="M746.328,1120.296c3.303,0,3.308-5.133,0-5.133s-3.308,5.133,0,5.133Z" fill="#0c2344"/>
      <path d="M757.559,1118.05c3.303,0,3.308-5.133,0-5.133s-3.308,5.133,0,5.133Z" fill="#0c2344"/>
      <path d="M760.769,1130.886c3.303,0,3.308-5.133,0-5.133s-3.308,5.133,0,5.133Z" fill="#0c2344"/>
      <path d="M750.179,1127.357c-3.303,0-3.308,5.133,0,5.133s3.308-5.133,0-5.133Z" fill="#0c2344"/>
      <path d="M753.389,1139.231c-3.303,0-3.308,5.133,0,5.133s3.308-5.133,0-5.133Z" fill="#0c2344"/>
      <path d="M763.978,1142.117c3.302,0,3.308-5.133,0-5.133s-3.308,5.133,0,5.133Z" fill="#0c2344"/>
      <path d="M755.681,1150.992c-3.303,0-3.308,5.133,0,5.133s3.308-5.133,0-5.133Z" fill="#0c2344"/>
      <path d="M766.271,1153.879c3.303,0,3.308-5.133,0-5.133s-3.308,5.133,0,5.133Z" fill="#0c2344"/>
      <path d="M769.158,1164.789c3.303,0,3.308-5.133,0-5.133s-3.308,5.133,0,5.133Z" fill="#0c2344"/>
      <path d="M758.568,1161.903c-3.302,0-3.308,5.133,0,5.133s3.308-5.133,0-5.133Z" fill="#0c2344"/>
      <path d="M761.136,1172.813c-3.303,0-3.308,5.133,0,5.133s3.308-5.133,0-5.133Z" fill="#0c2344"/>
      <path d="M772.367,1175.7c3.303,0,3.308-5.133,0-5.133s-3.308,5.133,0,5.133Z" fill="#0c2344"/>
      <path d="M775.577,1188.535c3.302,0,3.308-5.133,0-5.133s-3.308,5.133,0,5.133Z" fill="#0c2344"/>
      <path d="M764.987,1185.008c-3.303,0-3.308,5.133,0,5.133s3.308-5.133,0-5.133Z" fill="#0c2344"/>
      <path d="M768.195,1196.88c-3.302,0-3.308,5.133,0,5.133s3.308-5.133,0-5.133Z" fill="#0c2344"/>
      <path d="M778.785,1199.767c3.303,0,3.308-5.133,0-5.133s-3.308,5.133,0,5.133Z" fill="#0c2344"/>
    </g>
    <g>
      <path d="M1256.125,964.374c.615,1.043,1.641,1.777,2.827,2.02,1.49.306,36.754,7.403,56.696-.193,7.48-2.53,21.584-5.466,26.955-2.344.957.557,1.47,1.237,1.698,2.259l3.119,25.314c-2.115-.262-4.13,1.058-4.668,3.164l-80.217,313.614c-2.759,10.783-1.093,21.959,4.688,31.468,5.783,9.51,14.937,16.133,25.781,18.647,3.093.717,6.207,1.071,9.298,1.071,7.726,0,15.296-2.215,21.966-6.514,9.34-6.02,15.684-15.335,17.868-26.228l63.628-317.479c.454-2.267-.976-4.484-3.228-5.007l-1.868-.433,21.54-22.258c.518-.538.862-1.209,1.046-1.931l25.622,5.611-2.139,9.768c-.505,2.307.956,4.588,3.263,5.093l48.981,10.725c.304.066.61.099.916.099.812,0,1.614-.231,2.307-.676.956-.612,1.629-1.578,1.871-2.687l15.676-71.592c.505-2.307-.956-4.588-3.263-5.093l-48.981-10.725c-1.109-.242-2.267-.035-3.223.577s-1.629,1.578-1.871,2.687l-2.316,10.579-26.751-5.858c.115-1.985-1.15-3.826-3.114-4.369l-68.799-19.01c-.488-.135-.996-.181-1.499-.14-3.627.306-89.032,8.039-104.203,56.391-.361,1.155-.217,2.408.396,3.451ZM1424.129,930.871l-3.898,19.845c-.331-1.256-.74-2.419-1.263-3.415-2.595-4.934-8.404-5.687-13.351-7.753-19.711-8.234-41.284-12.009-62.619-10.821-25.502,1.421-54.356,12.745-75.953,27.434,18.838-34.454,85.109-42.24,92.87-43.034l64.214,17.743ZM1456.45,941.866l-2.8,12.793c-.733-.548-1.98-.968-4.042-1.538-4.957-1.371-10.456-1.736-15.534-2.578-1.417-.235-3.002-.436-4.179.389-.234.165-.436.36-.615.577l3.258-14.878,23.911,5.235ZM1456.007,992.572l13.846-63.235,40.626,8.895-5.106,23.319c-2.747-.968-6.433-1.391-10.66-1.876-3.567-.409-7.35-.787-10.605.731-4.917,2.293-7.011,8.035-8.628,13.212-1.557,4.978-3.114,9.956-4.67,14.934-.74,2.367-1.375,5.187-.169,7.223l-14.635-3.204ZM1331.318,1332.283l2.322-6.887c-.516,2.41-1.308,4.709-2.322,6.887ZM1350.002,1000.764l25.343,5.877-1.25-.081-79.166,343.427c-8.578-1.991-15.823-7.23-20.397-14.755-4.575-7.526-5.893-16.371-3.711-24.904l79.181-309.564ZM1336.098,953.999c.475-.182.947-.37,1.427-.538,6.361-2.23,13.62-3.091,19.701-.181,6.859,3.282,10.88,10.821,11.951,18.349.513,3.607.343,7.246-.063,10.853-.354,3.139-2.401,8.632-1.544,11.649.084.293.2.576.332.855l-11.856-3.503-3.276-26.585c-.012-.099-.028-.195-.047-.292-.683-3.515-2.698-6.334-5.829-8.15-2.957-1.716-6.778-2.39-10.795-2.457Z" fill="#0c2344"/>
      <path d="M1347.561,1098.475c-3.303,0-3.308-5.133,0-5.133,3.302,0,3.308,5.133,0,5.133Z" fill="#0c2344"/>
      <path d="M1336.972,1096.229c-3.303,0-3.308-5.133,0-5.133,3.302,0,3.308,5.133,0,5.133Z" fill="#0c2344"/>
      <path d="M1334.083,1107.139c-3.303,0-3.308-5.133,0-5.133s3.308,5.133,0,5.133Z" fill="#0c2344"/>
      <path d="M1344.672,1109.386c-3.303,0-3.308-5.133,0-5.133,3.303,0,3.308,5.133,0,5.133Z" fill="#0c2344"/>
      <path d="M1342.106,1120.296c-3.303,0-3.308-5.133,0-5.133,3.302,0,3.308,5.133,0,5.133Z" fill="#0c2344"/>
      <path d="M1330.875,1118.05c-3.303,0-3.308-5.133,0-5.133,3.302,0,3.308,5.133,0,5.133Z" fill="#0c2344"/>
      <path d="M1327.665,1130.886c-3.303,0-3.308-5.133,0-5.133,3.303,0,3.308,5.133,0,5.133Z" fill="#0c2344"/>
      <path d="M1338.255,1127.357c3.303,0,3.308,5.133,0,5.133-3.303,0-3.308-5.133,0-5.133Z" fill="#0c2344"/>
      <path d="M1335.045,1139.231c3.303,0,3.308,5.133,0,5.133-3.302,0-3.308-5.133,0-5.133Z" fill="#0c2344"/>
      <path d="M1324.456,1142.117c-3.302,0-3.308-5.133,0-5.133,3.303,0,3.308,5.133,0,5.133Z" fill="#0c2344"/>
      <path d="M1332.753,1150.992c3.303,0,3.308,5.133,0,5.133-3.303,0-3.308-5.133,0-5.133Z" fill="#0c2344"/>
      <path d="M1322.163,1153.879c-3.303,0-3.308-5.133,0-5.133s3.308,5.133,0,5.133Z" fill="#0c2344"/>
      <path d="M1319.276,1164.789c-3.303,0-3.308-5.133,0-5.133,3.302,0,3.308,5.133,0,5.133Z" fill="#0c2344"/>
      <path d="M1329.866,1161.903c3.302,0,3.308,5.133,0,5.133s-3.308-5.133,0-5.133Z" fill="#0c2344"/>
      <path d="M1327.298,1172.813c3.303,0,3.308,5.133,0,5.133s-3.308-5.133,0-5.133Z" fill="#0c2344"/>
      <path d="M1316.066,1175.7c-3.303,0-3.308-5.133,0-5.133,3.303,0,3.308,5.133,0,5.133Z" fill="#0c2344"/>
      <path d="M1312.857,1188.535c-3.302,0-3.308-5.133,0-5.133,3.303,0,3.308,5.133,0,5.133Z" fill="#0c2344"/>
      <path d="M1323.446,1185.008c3.303,0,3.308,5.133,0,5.133s-3.308-5.133,0-5.133Z" fill="#0c2344"/>
      <path d="M1320.239,1196.88c3.302,0,3.308,5.133,0,5.133-3.303,0-3.308-5.133,0-5.133Z" fill="#0c2344"/>
      <path d="M1309.649,1199.767c-3.303,0-3.308-5.133,0-5.133,3.302,0,3.308,5.133,0,5.133Z" fill="#0c2344"/>
    </g>
    <path d="M1274.842,1346.602c-1.563-4.593-.615-8.072,2.131-9.653-3.851-4.847-6.815-10.432-8.866-16.339-58.116,49.786-133.613,79.865-216.135,79.865-87.413,0-166.943-33.743-226.28-88.911,1.217,3.469,1.825,7.135,1.494,10.982-.373,4.339-1.531,8.359-3.298,12.138,2.787.775,4.44,3.526,4.407,7.97-.075,8.976.169,18.055-1.062,26.909-1.288,9.295.996,16.833,7.115,23.591,5.385,5.949,10.677,11.983,16.006,17.979,1.288-4.84,1.194-8.694,1.748-12.463,1.588-10.761,6.259-19.944,15.338-26.288,5.978-4.173,10.762-2.246,11.861,4.708,1.786,11.41,3.149,22.886,4.737,34.324.244,1.776.207,4.004,1.25,5.207,8.177,9.417,17.312,17.744,28.976,24.342-.508-2.726-.921-4.624-1.212-6.532-1.964-12.641.714-24.136,9.164-33.873,5.282-6.071,10.94-5.038,13.497,2.331,3.365,9.69,6.701,19.417,9.38,29.305,1.532,5.639,3.938,10,9.135,12.876,8.684,4.812,17.237,9.85,25.846,14.794.141-3.083-.592-4.756-1.194-6.476-4.192-12.068-3.675-23.807,2.81-34.982,4.182-7.209,9.887-7.322,13.995-.291,3.402,5.856,7.519,11.561,9.549,17.905,4.934,15.46,16.391,22.416,30.884,26.194,1.419.366,2.782.94,4.201,1.278,3.045.724,6.1,1.353,9.925,2.199-1.757-2.876-3.017-4.69-4.032-6.626-5.724-10.959-6.974-22.331-2.528-33.995,2.848-7.481,8.619-8.647,13.525-2.716,5.602,6.776,11.664,13.365,16.072,20.884,5.404,9.21,13.243,13.026,23.102,14.304,7.284.949,14.558,1.955,22.049,2.97-3.9-6.373-7.688-11.532-10.386-17.219-3.459-7.293-4.051-15.235-2.021-23.12,1.852-7.199,6.861-8.835,12.397-4.07,7.632,6.579,15.48,12.998,22.425,20.263,5.009,5.254,10.564,7.406,17.453,7.303,9.041-.151,18.083-.245,28.525-.385-4.323-3.948-7.359-6.335-9.934-9.136-7.115-7.744-10.808-16.974-10.696-27.51.084-8.167,5.207-11.241,12.049-7.124,9.727,5.846,19.211,12.106,28.826,18.149,1.532.959,3.224,2.435,4.822,2.397,12.416-.254,24.568-2.124,37.125-6.532-3.506-2.134-6.222-3.59-8.722-5.338-9.295-6.495-15.207-15.301-17.077-26.533-1.372-8.252,2.998-12.02,10.62-9.088,10.592,4.07,21.015,8.59,31.532,12.857,1.673.677,3.59,1.795,5.16,1.485,12.218-2.35,23.901-6.25,35.414-12.942-3.111-1.137-5.348-1.861-7.509-2.763-11.438-4.756-19.587-12.839-23.59-24.606Z" fill="#0c2344"/>
    <path d="M1330.53,913.606c7.925-2.101,16.082-2.87,24.247-3.244,1.56-4.604,3.214-9.17,5.742-13.168,8.261-13.054,6.184-25.611.329-38.478-.526-1.165-.949-2.387-1.503-3.543-1.588-3.308-3.224-6.598-5.179-10.592-1.748,4.361-2.801,7.698-4.37,10.762-5.141,10.075-12.914,17.359-23.882,20.555-6.908,2.011-10.884-1.588-9.634-8.44,1.579-8.656,2.763-17.5,5.555-25.771,3.365-9.925,1.908-18.525-3.571-26.974-4.079-6.278-8.017-12.651-12.688-20.047-1.081,5.094-1.57,8.543-2.547,11.842-3.148,10.658-9.351,19.051-19.304,24.248-6.946,3.628-11.72.902-11.664-6.626.075-8.976-.16-18.055,1.062-26.908,1.278-9.286-.977-16.833-7.105-23.6-5.395-5.94-10.686-11.983-16.072-18.036-1.475,7.998-1.503,15.339-4.304,21.392-3.027,6.551-7.942,12.679-13.346,17.547-5.01,4.511-10.066,1.889-11.25-4.812-1.278-7.218-3.205-14.53-3.036-21.758.348-14.578-6.617-24.502-17.763-32.463-.893-.639-1.701-1.4-2.603-2.021-3.581-2.481-7.18-4.925-11.579-7.942.705,4.126,1.307,6.805,1.588,9.521,1.203,11.701-1.748,22.256-9.483,31.157-5.301,6.099-10.94,5.103-13.516-2.294-3.364-9.68-6.758-19.398-9.351-29.305-1.551-5.931-4.342-10.244-9.596-13.196-8.515-4.775-16.974-9.652-25.452-14.493.056,3.543,1.005,5.714,1.71,7.96,3.788,12.002,2.876,23.581-3.854,34.352-3.919,6.259-9.473,6.184-13.083-.047-3.665-6.334-8.064-12.509-10.301-19.361-4.708-14.437-15.414-20.95-28.863-24.69-4.962-1.382-9.934-2.745-15.94-4.399,1.927,3.177,3.167,5,4.183,6.936,5.761,10.949,7.011,22.313,2.594,33.986-2.923,7.707-8.731,8.713-13.872,2.415-5.574-6.804-11.701-13.355-16.044-20.912-5.169-8.994-12.819-12.425-22.209-13.778-7.453-1.062-14.916-2.077-22.838-3.177,3.853,5.978,7.481,10.602,10.009,15.762,3.816,7.773,4.746,16.203,2.575,24.671-1.842,7.153-6.889,8.769-12.416,4.023-7.509-6.457-15.263-12.717-22.021-19.906-5.263-5.602-11.147-7.81-18.421-7.669-8.844.169-17.688.301-27.876.461,4.267,3.9,7.303,6.297,9.887,9.107,7.256,7.895,10.978,17.312,10.668,28.045-.216,7.557-5.329,10.555-11.56,6.824-9.728-5.846-19.239-12.068-28.864-18.083-1.692-1.052-3.524-2.735-5.273-2.697-12.434.207-24.596,2.143-37.2,6.551,3.478,2.068,6.203,3.478,8.703,5.207,9.483,6.607,15.489,15.564,17.237,27.03,1.203,7.952-3.149,11.57-10.526,8.741-10.592-4.079-21.025-8.581-31.542-12.857-1.673-.676-3.581-1.851-5.141-1.56-12.265,2.274-23.938,6.259-35.583,12.98,2.556.893,4.229,1.428,5.865,2.058,11.936,4.549,20.621,12.51,25.019,24.624,2.848,7.867-.846,12.491-8.778,10.93-11.326-2.208-22.557-4.906-33.854-7.274-1.899-.404-4.305-.987-5.827-.207-10.677,5.451-21.185,11.232-31.748,16.918.235.592.47,1.194.705,1.786,1.748.301,3.506.573,5.254.893,12.763,2.35,22.914,8.628,29.295,20.151,3.957,7.153,1.231,12.19-6.541,12.049-11.541-.207-23.083-.884-34.624-1.307-1.795-.066-4.013-.442-5.348.404-10.348,6.569-20.141,13.844-27.754,24.389,2.632.461,5.141-.216,7.613-.084,11.009.595,20.531,4.442,27.77,12.382,2.772-.873,5.743-1.004,8.487-.121,6.848,2.202,13.437,4.043,19.25,7.261,59.245-91.312,162.08-151.723,279.038-151.723,116.129,0,218.34,59.564,277.778,149.801,1.381-.97,2.906-1.723,4.54-2.156Z" fill="#0c2344"/>
  </g>
  <g>
    <circle cx="1044.217" cy="1115.483" r="467.233" fill="none"/>
    <path d="M644.093,717.53c8.684-3.075,17.379-3.604,26.084-1.582,8.707,2.023,16.76,6.419,24.16,13.185,7.33,6.702,12.375,14.317,15.135,22.841,2.759,8.527,3.029,17.285.814,26.273-2.217,8.992-6.939,17.438-14.166,25.341l-27.496,30.074-75.993-69.479,27.497-30.074c7.293-7.977,15.281-13.502,23.965-16.579ZM684.232,768.972c-.159-6.607-3.325-12.736-9.507-18.389-6.252-5.715-12.695-8.373-19.327-7.974-6.632.402-12.774,3.691-18.425,9.872l-6.701,7.329,39.02,35.677,6.702-7.33c5.649-6.18,8.397-12.573,8.238-19.185Z" fill="#0c2344"/>
    <path d="M770.216,715.999l-29.34,21.734,5.537,16.8-24.176,17.909-31.128-105.083,26.523-19.647,91.334,60.484-24.294,17.996-14.457-10.193ZM751.425,702.655l-28.74-20.15,11.019,33.277,17.722-13.127Z" fill="#0c2344"/>
    <path d="M811.672,700.662c-9.409-1.755-16.699-7.275-21.87-16.563l27.445-13.36c1.84,3.112,3.953,5.007,6.342,5.684,2.387.681,4.895.38,7.521-.899,2.363-1.15,4.023-2.69,4.98-4.618.955-1.927.924-3.942-.1-6.042-1.32-2.714-3.613-4.196-6.877-4.451-3.264-.25-8.188.088-14.772,1.02-7.021.928-12.85,1.357-17.487,1.284-4.638-.069-9.218-1.25-13.744-3.541-4.525-2.29-8.218-6.369-11.074-12.235-2.896-5.953-3.892-11.775-2.981-17.473.909-5.693,3.458-10.915,7.646-15.661,4.188-4.744,9.607-8.737,16.26-11.977,10.769-5.242,20.596-6.912,29.48-5.011,8.887,1.902,15.763,7.3,20.633,16.189l-27.971,13.616c-1.451-2.757-3.328-4.442-5.629-5.057-2.303-.61-4.723-.299-7.261.936-1.927.938-3.225,2.275-3.896,4.009-.674,1.736-.497,3.652.525,5.753.854,1.753,2.266,2.934,4.242,3.54,1.975.61,4.191.885,6.654.822,2.459-.061,6.002-.349,10.623-.867,6.846-.839,12.652-1.204,17.42-1.089,4.766.116,9.392,1.276,13.875,3.479,4.484,2.204,8.048,6.02,10.689,11.445,2.686,5.517,3.715,11.134,3.088,16.854-.627,5.721-2.928,11.119-6.9,16.192-3.973,5.077-9.505,9.338-16.596,12.79-10.769,5.242-20.858,6.987-30.267,5.232Z" fill="#0c2344"/>
    <path d="M883.499,667.835c-8.992-3.281-15.271-9.928-18.84-19.941l29.273-8.651c1.301,3.372,3.072,5.589,5.316,6.651,2.242,1.064,4.766,1.182,7.567.354,2.521-.746,4.411-1.989,5.673-3.734,1.262-1.743,1.562-3.735.899-5.977-.854-2.892-2.872-4.733-6.048-5.521-3.18-.786-8.092-1.264-14.74-1.431-7.078-.243-12.897-.781-17.459-1.618-4.563-.833-8.887-2.753-12.973-5.759-4.086-3.005-7.055-7.636-8.904-13.894-1.877-6.349-1.896-12.256-.061-17.725,1.834-5.466,5.211-10.196,10.123-14.186,4.913-3.989,10.916-7.035,18.014-9.133,11.484-3.395,21.453-3.421,29.902-.082,8.45,3.342,14.343,9.799,17.682,19.37l-29.834,8.819c-.977-2.961-2.551-4.933-4.719-5.916-2.17-.982-4.607-1.075-7.314-.276-2.056.608-3.557,1.713-4.504,3.312-.95,1.601-1.092,3.52-.43,5.761.553,1.869,1.75,3.266,3.6,4.19,1.846.927,3.988,1.563,6.428,1.909,2.436.345,5.977.646,10.621.896,6.89.3,12.678.898,17.359,1.798,4.684.9,9.055,2.806,13.113,5.719,4.06,2.912,6.944,7.264,8.656,13.052,1.738,5.884,1.827,11.594.266,17.132-1.561,5.54-4.721,10.483-9.475,14.832-4.756,4.352-10.916,7.643-18.479,9.879-11.485,3.394-21.725,3.452-30.715.168Z" fill="#0c2344"/>
    <path d="M1063.386,647.771l-8.452-7.751c-9.147,6.48-20.144,9.824-32.995,10.034-8.082.132-15.135-1.067-21.166-3.599-6.029-2.53-10.716-6.154-14.055-10.872-3.34-4.715-5.059-10.19-5.161-16.421-.103-6.229,1.435-11.929,4.614-17.094,3.178-5.163,8.002-9.406,14.473-12.725-2.486-3.076-4.286-6.016-5.402-8.822-1.119-2.805-1.702-5.816-1.755-9.029-.083-5.061,1.156-9.707,3.716-13.938,2.561-4.228,6.377-7.627,11.447-10.192,5.07-2.566,11.109-3.907,18.12-4.021,7.105-.116,13.164,1.075,18.171,3.574,5.008,2.5,8.787,5.845,11.339,10.04,2.552,4.194,3.817,8.775,3.803,13.742l-26.432.431c-.036-2.237-.698-3.933-1.981-5.079-1.285-1.148-2.854-1.706-4.702-1.677-1.948.032-3.569.621-4.864,1.76-1.297,1.142-1.929,2.686-1.896,4.632.056,3.41,2.556,7.507,7.504,12.294l24.48,23.118c.847-1.768,1.736-3.875,2.672-6.326l2.834-5.304,28.33-.463-4.102,8.248c-3.367,8.431-7.099,15.552-11.189,21.363l24.924,23.549-32.273.527ZM1037.136,623.512l-20.617-19.09c-2.506,1.601-4.375,3.431-5.606,5.496-1.233,2.064-1.831,4.17-1.796,6.311.051,3.117,1.358,5.726,3.926,7.824,2.565,2.101,6.039,3.114,10.421,3.043,5.159-.084,9.716-1.277,13.673-3.584Z" fill="#0c2344"/>
    <path d="M1135.894,648.823c-6.025-7.438-7.992-16.369-5.904-26.791l29.555,7.632c-.617,3.562-.238,6.375,1.141,8.44,1.375,2.066,3.479,3.462,6.308,4.193,2.546.656,4.807.562,6.786-.283,1.977-.849,3.26-2.402,3.844-4.665.755-2.921-.029-5.537-2.348-7.847-2.322-2.308-6.289-5.244-11.906-8.805-5.945-3.848-10.66-7.302-14.143-10.365-3.484-3.061-6.205-6.932-8.164-11.611-1.96-4.677-2.123-10.177-.492-16.493,1.654-6.41,4.675-11.487,9.062-15.233,4.384-3.745,9.712-6.064,15.977-6.962,6.265-.895,12.979-.419,20.146,1.431,11.596,2.994,20.158,8.097,25.688,15.306,5.529,7.212,7.263,15.779,5.204,25.704l-30.121-7.776c.684-3.041.348-5.541-1.006-7.5-1.355-1.959-3.398-3.292-6.133-3.998-2.074-.536-3.93-.358-5.565.524-1.638.885-2.747,2.458-3.331,4.721-.487,1.887-.178,3.701.934,5.445,1.105,1.745,2.616,3.391,4.531,4.941,1.911,1.55,4.795,3.628,8.647,6.23,5.755,3.801,10.411,7.289,13.966,10.469,3.553,3.181,6.321,7.063,8.305,11.648,1.984,4.585,2.222,9.801.712,15.645-1.534,5.939-4.394,10.883-8.58,14.829-4.188,3.949-9.44,6.563-15.753,7.849-6.316,1.287-13.292.943-20.928-1.028-11.598-2.995-20.408-8.211-26.43-15.649Z" fill="#0c2344"/>
    <path d="M1223.174,676.832c-5.365-7.553-8.46-15.971-9.286-25.251-.828-9.282.928-18.497,5.266-27.648,4.336-9.149,10.357-16.345,18.067-21.58,7.707-5.236,16.171-8.147,25.394-8.734,9.22-.585,18.187,1.187,26.898,5.314,8.797,4.169,15.866,10,21.207,17.487,5.341,7.489,8.402,15.863,9.186,25.123.783,9.261-.994,18.467-5.332,27.617-4.337,9.152-10.336,16.355-18,21.612s-16.117,8.2-25.359,8.831c-9.243.63-18.219-1.119-26.929-5.248s-15.749-9.97-21.111-17.521ZM1274.375,671.279c5.87-2.496,10.515-7.353,13.935-14.568,3.504-7.391,4.352-14.125,2.548-20.209-1.806-6.08-6.007-10.687-12.606-13.813-6.688-3.17-12.934-3.517-18.738-1.042-5.808,2.475-10.461,7.407-13.965,14.797-3.461,7.304-4.312,13.984-2.55,20.045,1.759,6.062,5.984,10.676,12.672,13.845,6.599,3.128,12.833,3.444,18.705.946Z" fill="#0c2344"/>
    <path d="M1364.954,772.203l-22.805-17.304,4.418-68.884-34.785,45.841-22.804-17.304,62.241-82.026,22.805,17.304-4.859,69.467,35.227-46.424,22.804,17.305-62.241,82.026Z" fill="#0c2344"/>
    <path d="M1380.423,778.95c-.855-9.533,2.488-18.043,10.032-25.532l20.283,22.812c-2.499,2.612-3.753,5.158-3.759,7.641-.01,2.483.959,4.815,2.899,6.999,1.747,1.964,3.678,3.146,5.792,3.547,2.114.398,4.045-.177,5.792-1.73,2.254-2.004,3.062-4.614,2.425-7.824-.642-3.211-2.299-7.859-4.975-13.948-2.791-6.508-4.781-12.004-5.965-16.488-1.187-4.484-1.287-9.213-.306-14.19.981-4.976,3.909-9.632,8.786-13.969,4.947-4.397,10.285-6.93,16.016-7.594,5.727-.665,11.442.379,17.145,3.126,5.699,2.75,11.01,6.888,15.928,12.419,7.957,8.948,12.222,17.959,12.793,27.027.57,9.068-2.766,17.148-10.008,24.241l-20.672-23.248c2.262-2.143,3.378-4.406,3.346-6.787-.034-2.381-.986-4.628-2.863-6.738-1.424-1.601-3.062-2.489-4.912-2.667-1.854-.178-3.65.51-5.396,2.062-1.457,1.295-2.212,2.975-2.262,5.041-.054,2.066.283,4.274,1.008,6.628.723,2.352,1.958,5.685,3.707,9.995,2.658,6.362,4.58,11.854,5.758,16.476,1.177,4.621,1.311,9.389.401,14.3-.908,4.913-3.618,9.375-8.13,13.386-4.584,4.076-9.715,6.586-15.391,7.528-5.678.944-11.496.187-17.454-2.266-5.962-2.453-11.561-6.627-16.801-12.521-7.958-8.95-12.365-18.192-13.218-27.726Z" fill="#0c2344"/>
  </g>
</svg>