<svg xmlns="http://www.w3.org/2000/svg" id="a" data-name="Primary_Logo" viewBox="348.95 596.13 1302.09 807.73">
  <g>
    <g>
      <path d="M909.274,769.149v219.971l82.623,25.653,1.97.613v-318.304l-84.592,72.066ZM928.748,789.389l14.413-10.509v24.333l-14.413,8.103v-21.926ZM928.748,829.338l14.413-8.563v22.375l-14.413,6.31v-20.122ZM928.748,869.581l14.413-7.206v24.627l-14.413,4.506v-21.926ZM932.357,971.995v-49.856l33.934-3.302,1.497,61.568-35.431-8.41ZM974.406,876.493l-18.023,6.004v-24.628l18.023-8.409v27.033ZM974.406,830.836l-18.023,7.513v-23.424l18.023-11.712v27.623ZM974.406,784.883l-18.023,11.122v-26.432l18.023-13.823v29.133Z" fill="#0c2344"/>
      <path d="M1079.98,769.444l-84.591-71.193-1.522.708-2.359,1.097v314.435l.389.283,2.665,1.97,21.749-6.676,16.384-5.025h.012l13.458-4.14.378-.118,32.612-10.002.059-.083,1.604-2.17v-217.282l-.837-1.805ZM996.226,1011.295v-306.179l79.873,67.23v214.44l-.225.071-79.649,24.439Z" fill="#0c2344"/>
      <path d="M1079.217,989.984l-46.166,15.265-3.223-1.897,48.636-15.064-6.784-3.756-48.556,13.596-4.747-3.021,48.555-14.027-7.769-3.453-65.29,16.401v20.461c33.116-8.672,38.531-2.981,38.531-2.981l46.814-15.667v-5.856Z" fill="#0c2344"/>
      <polygon points="1022.804 982.509 1058.243 974.099 1058.243 924.244 1024.305 920.94 1022.804 982.509" fill="#0c2344"/>
      <polygon points="1016.196 851.562 1016.196 878.592 1034.216 884.599 1034.216 859.972 1016.196 851.562" fill="#0c2344"/>
      <polygon points="1047.431 864.477 1047.431 889.104 1061.847 893.609 1061.847 871.685 1047.431 864.477" fill="#0c2344"/>
      <polygon points="1016.196 805.311 1016.196 832.941 1034.216 840.45 1034.216 817.024 1016.196 805.311" fill="#0c2344"/>
      <polygon points="1047.431 822.88 1047.431 845.255 1061.847 851.562 1061.847 831.44 1047.431 822.88" fill="#0c2344"/>
      <polygon points="1016.196 757.858 1016.196 786.99 1034.216 798.103 1034.216 771.673 1016.196 757.858" fill="#0c2344"/>
      <polygon points="1047.431 780.983 1047.431 805.311 1061.847 813.42 1061.847 791.495 1047.431 780.983" fill="#0c2344"/>
      <polygon points="1104.35 980.406 1088.516 988.522 1088.516 777.98 1104.35 790.791 1104.35 980.406" fill="#0c2344"/>
      <polygon points="1128.081 968.102 1112.247 976.437 1112.247 798.103 1128.081 810.257 1128.081 968.102" fill="#0c2344"/>
      <polygon points="1150.153 954.36 1134.319 965.548 1134.319 816.556 1150.153 825.608 1150.153 954.36" fill="#0c2344"/>
      <polygon points="885.818 976.198 901.652 984.314 901.652 773.772 885.818 786.583 885.818 976.198" fill="#0c2344"/>
      <polygon points="862.087 963.894 877.921 972.229 877.921 793.894 862.087 806.049 862.087 963.894" fill="#0c2344"/>
      <polygon points="840.015 950.152 855.849 961.34 855.849 812.348 840.015 821.399 840.015 950.152" fill="#0c2344"/>
    </g>
    <g>
      <path d="M851.962,775.501c-10.459-33.333-69.335-38.664-71.836-38.875-.347-.029-.697.003-1.033.096l-47.429,13.105c-1.355.374-2.226,1.644-2.147,3.012l-18.442,4.038-1.596-7.293c-.167-.764-.631-1.43-1.29-1.852s-1.457-.565-2.222-.398l-33.767,7.394c-1.591.348-2.597,1.921-2.25,3.511l10.806,49.354c.167.764.631,1.43,1.29,1.852.478.306,1.031.466,1.591.466.211,0,.422-.022.631-.068l33.767-7.394c1.591-.348,2.597-1.921,2.25-3.511l-1.474-6.734,17.663-3.868c.127.498.364.96.721,1.331l14.849,15.344-1.288.299c-1.553.361-2.539,1.889-2.225,3.452l43.864,218.864c1.505,7.51,5.879,13.931,12.318,18.081,4.598,2.964,9.817,4.491,15.143,4.491,2.131,0,4.278-.244,6.41-.738,7.475-1.733,13.786-6.299,17.773-12.855,3.985-6.556,5.134-14.26,3.232-21.694l-55.3-216.2c-.371-1.451-1.76-2.362-3.218-2.181l2.15-17.451c.157-.704.51-1.173,1.17-1.557,3.703-2.152,13.426-.128,18.582,1.616,13.747,5.236,38.058.344,39.085.133.818-.168,1.525-.674,1.949-1.393.423-.719.522-1.583.273-2.379ZM780.138,742.552c5.35.548,51.036,5.915,64.023,29.667-14.889-10.127-34.781-17.933-52.361-18.913-14.708-.819-29.58,1.783-43.168,7.46-3.411,1.425-7.415,1.943-9.204,5.345-.361.687-.643,1.488-.871,2.354l-2.687-13.681,44.268-12.232ZM730.072,758.755l2.246,10.257c-.123-.149-.263-.284-.424-.398-.811-.569-1.904-.43-2.881-.268-3.5.581-7.291.832-10.709,1.778-1.421.393-2.281.683-2.786,1.061l-1.93-8.82,16.484-3.609ZM703.805,799.528c.832-1.404.394-3.348-.116-4.98-1.072-3.432-2.146-6.863-3.219-10.295-1.115-3.57-2.558-7.528-5.948-9.108-2.244-1.046-4.851-.786-7.311-.504-2.914.334-5.455.626-7.349,1.293l-3.52-16.076,28.007-6.132,9.545,43.593-10.089,2.209ZM798.251,1026.762l1.601,4.748c-.699-1.502-1.245-3.087-1.601-4.748ZM841.558,1016.374c1.504,5.883.595,11.98-2.558,17.169-3.154,5.187-8.148,8.799-14.062,10.172l-54.576-236.752-.862.056,17.471-4.051,54.586,213.408ZM789.115,772.422c-2.159,1.252-3.548,3.195-4.019,5.619-.013.067-.024.134-.032.202l-2.259,18.327-8.173,2.415c.091-.192.172-.387.229-.589.591-2.08-.82-5.867-1.064-8.031-.28-2.487-.397-4.995-.044-7.482.738-5.19,3.511-10.387,8.239-12.65,4.191-2.006,9.196-1.412,13.581.125.331.116.657.245.984.371-2.769.046-5.403.511-7.442,1.694Z" fill="#0c2344"/>
      <path d="M788.654,870.327c2.277,0,2.281-3.538,0-3.538s-2.281,3.538,0,3.538Z" fill="#0c2344"/>
      <path d="M795.955,868.779c2.277,0,2.281-3.538,0-3.538s-2.281,3.538,0,3.538Z" fill="#0c2344"/>
      <path d="M797.946,876.3c2.277,0,2.281-3.538,0-3.538s-2.281,3.538,0,3.538Z" fill="#0c2344"/>
      <path d="M790.646,877.849c2.277,0,2.281-3.538,0-3.538s-2.281,3.538,0,3.538Z" fill="#0c2344"/>
      <path d="M792.415,885.37c2.277,0,2.281-3.538,0-3.538s-2.281,3.538,0,3.538Z" fill="#0c2344"/>
      <path d="M800.158,883.822c2.277,0,2.281-3.538,0-3.538s-2.281,3.538,0,3.538Z" fill="#0c2344"/>
      <path d="M802.37,892.671c2.277,0,2.281-3.538,0-3.538s-2.281,3.538,0,3.538Z" fill="#0c2344"/>
      <path d="M795.07,890.238c-2.277,0-2.281,3.538,0,3.538s2.281-3.538,0-3.538Z" fill="#0c2344"/>
      <path d="M797.283,898.423c-2.277,0-2.281,3.538,0,3.538s2.281-3.538,0-3.538Z" fill="#0c2344"/>
      <path d="M804.583,900.413c2.276,0,2.281-3.538,0-3.538s-2.281,3.538,0,3.538Z" fill="#0c2344"/>
      <path d="M798.863,906.532c-2.277,0-2.281,3.538,0,3.538s2.281-3.538,0-3.538Z" fill="#0c2344"/>
      <path d="M806.163,908.521c2.277,0,2.281-3.538,0-3.538s-2.281,3.538,0,3.538Z" fill="#0c2344"/>
      <path d="M808.154,916.043c2.277,0,2.281-3.538,0-3.538s-2.281,3.538,0,3.538Z" fill="#0c2344"/>
      <path d="M800.853,914.053c-2.276,0-2.281,3.538,0,3.538s2.281-3.538,0-3.538Z" fill="#0c2344"/>
      <path d="M802.624,921.574c-2.277,0-2.281,3.538,0,3.538s2.281-3.538,0-3.538Z" fill="#0c2344"/>
      <path d="M810.366,923.565c2.277,0,2.281-3.538,0-3.538s-2.281,3.538,0,3.538Z" fill="#0c2344"/>
      <path d="M812.579,932.413c2.276,0,2.281-3.538,0-3.538s-2.281,3.538,0,3.538Z" fill="#0c2344"/>
      <path d="M805.279,929.981c-2.277,0-2.281,3.538,0,3.538s2.281-3.538,0-3.538Z" fill="#0c2344"/>
      <path d="M807.49,938.166c-2.276,0-2.281,3.538,0,3.538s2.281-3.538,0-3.538Z" fill="#0c2344"/>
      <path d="M814.791,940.156c2.277,0,2.281-3.538,0-3.538s-2.281,3.538,0,3.538Z" fill="#0c2344"/>
    </g>
    <g>
      <path d="M1143.86,777.88c.424.719,1.131,1.225,1.949,1.393,1.027.211,25.338,5.103,39.085-.133,5.157-1.744,14.879-3.768,18.582-1.616.66.384,1.014.853,1.17,1.557l2.15,17.451c-1.458-.181-2.847.73-3.218,2.181l-55.3,216.2c-1.902,7.433-.753,15.138,3.232,21.694,3.986,6.556,10.297,11.121,17.773,12.855,2.132.494,4.279.738,6.41.738,5.326,0,10.545-1.527,15.143-4.491,6.439-4.15,10.812-10.571,12.318-18.081l43.864-218.864c.313-1.563-.673-3.092-2.225-3.452l-1.288-.299,14.849-15.344c.357-.371.594-.833.721-1.331l17.663,3.868-1.474,6.734c-.348,1.591.659,3.163,2.25,3.511l33.767,7.394c.21.045.42.068.631.068.56,0,1.113-.16,1.591-.466.659-.422,1.123-1.088,1.29-1.852l10.806-49.354c.348-1.591-.659-3.163-2.25-3.511l-33.767-7.394c-.765-.167-1.563-.024-2.222.398s-1.123,1.088-1.29,1.852l-1.596,7.293-18.442-4.038c.079-1.368-.792-2.637-2.147-3.012l-47.429-13.105c-.336-.093-.686-.125-1.033-.096-2.501.211-61.377,5.542-71.836,38.875-.249.796-.15,1.66.273,2.379ZM1259.68,754.784l-2.687,13.681c-.228-.866-.51-1.668-.871-2.354-1.789-3.401-5.794-3.92-9.204-5.345-13.588-5.676-28.46-8.279-43.168-7.46-17.58.98-37.472,8.786-52.361,18.913,12.987-23.752,58.673-29.119,64.023-29.667l44.268,12.232ZM1281.961,762.364l-1.93,8.82c-.506-.378-1.365-.667-2.786-1.061-3.417-.945-7.208-1.196-10.709-1.778-.977-.162-2.07-.3-2.881.268-.161.113-.301.248-.424.398l2.246-10.257,16.484,3.609ZM1281.655,797.319l9.545-43.593,28.007,6.132-3.52,16.076c-1.894-.667-4.435-.959-7.349-1.293-2.459-.282-5.067-.542-7.311.504-3.39,1.581-4.833,5.539-5.948,9.108-1.074,3.432-2.147,6.864-3.219,10.295-.51,1.632-.948,3.576-.116,4.98l-10.089-2.209ZM1195.697,1031.51l1.601-4.748c-.356,1.662-.902,3.246-1.601,4.748ZM1208.578,802.967l17.471,4.051-.862-.056-54.576,236.752c-5.913-1.372-10.908-4.985-14.062-10.172-3.154-5.188-4.062-11.286-2.558-17.169l54.586-213.408ZM1198.992,770.728c.327-.125.653-.255.984-.371,4.385-1.537,9.39-2.131,13.581-.125,4.728,2.263,7.501,7.46,8.239,12.65.354,2.487.236,4.995-.044,7.482-.244,2.164-1.655,5.951-1.064,8.031.058.202.138.397.229.589l-8.173-2.415-2.259-18.327c-.008-.068-.02-.135-.032-.202-.471-2.423-1.86-4.367-4.019-5.619-2.039-1.183-4.673-1.648-7.442-1.694Z" fill="#0c2344"/>
      <path d="M1206.895,870.327c-2.277,0-2.281-3.538,0-3.538,2.276,0,2.281,3.538,0,3.538Z" fill="#0c2344"/>
      <path d="M1199.595,868.779c-2.277,0-2.281-3.538,0-3.538s2.281,3.538,0,3.538Z" fill="#0c2344"/>
      <path d="M1197.603,876.3c-2.277,0-2.281-3.538,0-3.538s2.281,3.538,0,3.538Z" fill="#0c2344"/>
      <path d="M1204.903,877.849c-2.277,0-2.281-3.538,0-3.538,2.277,0,2.281,3.538,0,3.538Z" fill="#0c2344"/>
      <path d="M1203.134,885.37c-2.277,0-2.281-3.538,0-3.538,2.276,0,2.281,3.538,0,3.538Z" fill="#0c2344"/>
      <path d="M1195.392,883.822c-2.277,0-2.281-3.538,0-3.538s2.281,3.538,0,3.538Z" fill="#0c2344"/>
      <path d="M1193.179,892.671c-2.277,0-2.281-3.538,0-3.538,2.277,0,2.281,3.538,0,3.538Z" fill="#0c2344"/>
      <path d="M1200.479,890.238c2.277,0,2.281,3.538,0,3.538s-2.281-3.538,0-3.538Z" fill="#0c2344"/>
      <path d="M1198.267,898.423c2.277,0,2.281,3.538,0,3.538-2.276,0-2.281-3.538,0-3.538Z" fill="#0c2344"/>
      <path d="M1190.966,900.413c-2.276,0-2.281-3.538,0-3.538,2.277,0,2.281,3.538,0,3.538Z" fill="#0c2344"/>
      <path d="M1196.686,906.532c2.277,0,2.281,3.538,0,3.538-2.277,0-2.281-3.538,0-3.538Z" fill="#0c2344"/>
      <path d="M1189.386,908.521c-2.277,0-2.281-3.538,0-3.538s2.281,3.538,0,3.538Z" fill="#0c2344"/>
      <path d="M1187.396,916.043c-2.277,0-2.281-3.538,0-3.538,2.276,0,2.281,3.538,0,3.538Z" fill="#0c2344"/>
      <path d="M1194.696,914.053c2.276,0,2.281,3.538,0,3.538s-2.281-3.538,0-3.538Z" fill="#0c2344"/>
      <path d="M1192.925,921.574c2.277,0,2.281,3.538,0,3.538s-2.281-3.538,0-3.538Z" fill="#0c2344"/>
      <path d="M1185.183,923.565c-2.277,0-2.281-3.538,0-3.538,2.277,0,2.281,3.538,0,3.538Z" fill="#0c2344"/>
      <path d="M1182.97,932.413c-2.276,0-2.281-3.538,0-3.538s2.281,3.538,0,3.538Z" fill="#0c2344"/>
      <path d="M1190.271,929.981c2.277,0,2.281,3.538,0,3.538s-2.281-3.538,0-3.538Z" fill="#0c2344"/>
      <path d="M1188.059,938.166c2.276,0,2.281,3.538,0,3.538s-2.281-3.538,0-3.538Z" fill="#0c2344"/>
      <path d="M1180.759,940.156c-2.277,0-2.281-3.538,0-3.538,2.276,0,2.281,3.538,0,3.538Z" fill="#0c2344"/>
    </g>
    <path d="M1156.763,1041.382c-1.077-3.166-.424-5.565,1.469-6.655-2.655-3.341-4.698-7.191-6.112-11.264-40.064,34.322-92.11,55.058-148.999,55.058-60.261,0-115.088-23.262-155.993-61.294.839,2.391,1.258,4.919,1.03,7.571-.257,2.991-1.056,5.763-2.274,8.368,1.921.534,3.061,2.431,3.038,5.494-.052,6.188.117,12.447-.732,18.55-.888,6.408.687,11.604,4.905,16.263,3.713,4.101,7.36,8.261,11.034,12.395.888-3.337.823-5.993,1.205-8.592,1.095-7.419,4.315-13.749,10.574-18.122,4.121-2.877,7.419-1.549,8.177,3.246,1.231,7.866,2.171,15.777,3.266,23.662.168,1.225.143,2.76.862,3.59,5.637,6.492,11.935,12.233,19.975,16.781-.35-1.879-.635-3.188-.836-4.503-1.354-8.715.492-16.639,6.317-23.351,3.641-4.186,7.542-3.473,9.304,1.607,2.32,6.68,4.62,13.386,6.466,20.202,1.056,3.888,2.715,6.894,6.298,8.876,5.987,3.317,11.883,6.79,17.818,10.198.097-2.125-.408-3.279-.823-4.464-2.89-8.319-2.533-16.412,1.937-24.116,2.883-4.97,6.816-5.047,9.648-.201,2.345,4.037,5.183,7.97,6.583,12.343,3.402,10.658,11.3,15.453,21.291,18.058.978.252,1.918.648,2.896.881,2.099.499,4.205.933,6.842,1.516-1.212-1.983-2.08-3.233-2.78-4.568-3.946-7.555-4.808-15.395-1.743-23.435,1.963-5.157,5.942-5.961,9.324-1.873,3.862,4.672,8.041,9.214,11.079,14.397,3.726,6.35,9.129,8.98,15.926,9.861,5.021.654,10.036,1.348,15.2,2.048-2.689-4.393-5.3-7.95-7.16-11.87-2.384-5.028-2.792-10.503-1.393-15.939,1.276-4.963,4.73-6.091,8.546-2.806,5.261,4.535,10.671,8.961,15.46,13.969,3.453,3.622,7.283,5.106,12.032,5.034,6.233-.104,12.466-.169,19.664-.266-2.98-2.721-5.073-4.367-6.849-6.298-4.905-5.339-7.451-11.702-7.373-18.965.058-5.63,3.59-7.749,8.306-4.911,6.706,4.03,13.244,8.346,19.872,12.511,1.056.661,2.222,1.678,3.324,1.652,8.559-.175,16.937-1.464,25.593-4.503-2.417-1.471-4.289-2.475-6.013-3.68-6.408-4.477-10.483-10.548-11.773-18.291-.946-5.689,2.067-8.287,7.322-6.265,7.302,2.806,14.488,5.922,21.738,8.864,1.153.467,2.475,1.238,3.557,1.024,8.423-1.62,16.477-4.309,24.414-8.922-2.145-.784-3.687-1.283-5.177-1.905-7.885-3.279-13.503-8.851-16.263-16.963Z" fill="#0c2344"/>
    <path d="M1195.154,742.882c5.463-1.449,11.087-1.979,16.716-2.236,1.075-3.174,2.216-6.322,3.959-9.078,5.695-8.999,4.263-17.656.227-26.526-.363-.803-.654-1.646-1.036-2.443-1.095-2.281-2.222-4.548-3.57-7.302-1.205,3.006-1.931,5.307-3.013,7.419-3.544,6.946-8.903,11.967-16.464,14.17-4.762,1.386-7.503-1.095-6.641-5.818,1.089-5.967,1.905-12.064,3.829-17.766,2.32-6.842,1.315-12.771-2.462-18.595-2.812-4.328-5.527-8.721-8.747-13.82-.745,3.512-1.082,5.89-1.756,8.164-2.17,7.347-6.447,13.133-13.308,16.716-4.788,2.501-8.08.622-8.041-4.568.052-6.188-.11-12.447.732-18.55.881-6.402-.674-11.604-4.898-16.27-3.719-4.095-7.367-8.261-11.08-12.434-1.017,5.514-1.036,10.574-2.967,14.747-2.086,4.516-5.475,8.74-9.201,12.097-3.453,3.11-6.939,1.302-7.756-3.317-.881-4.976-2.209-10.017-2.093-14.999.24-10.049-4.561-16.891-12.246-22.379-.615-.441-1.173-.965-1.795-1.393-2.469-1.711-4.95-3.395-7.982-5.475.486,2.844.901,4.691,1.095,6.563.829,8.067-1.205,15.343-6.537,21.479-3.654,4.205-7.542,3.518-9.317-1.581-2.319-6.673-4.659-13.373-6.447-20.202-1.069-4.088-2.993-7.062-6.615-9.097-5.87-3.292-11.702-6.654-17.546-9.991.039,2.443.693,3.939,1.179,5.488,2.611,8.274,1.983,16.257-2.657,23.682-2.702,4.315-6.531,4.263-9.019-.033-2.527-4.367-5.559-8.624-7.101-13.347-3.246-9.952-10.626-14.442-19.898-17.021-3.421-.953-6.848-1.892-10.989-3.032,1.328,2.19,2.184,3.447,2.883,4.782,3.972,7.548,4.833,15.382,1.788,23.429-2.015,5.313-6.019,6.006-9.563,1.665-3.842-4.691-8.067-9.207-11.06-14.416-3.564-6.201-8.837-8.565-15.31-9.498-5.138-.732-10.283-1.432-15.744-2.19,2.656,4.121,5.157,7.309,6.9,10.866,2.631,5.358,3.272,11.17,1.775,17.008-1.27,4.931-4.749,6.045-8.559,2.773-5.177-4.451-10.522-8.767-15.181-13.723-3.628-3.862-7.685-5.384-12.699-5.287-6.097.117-12.194.208-19.218.318,2.942,2.689,5.034,4.341,6.816,6.278,5.002,5.443,7.568,11.935,7.354,19.334-.149,5.209-3.674,7.276-7.969,4.704-6.706-4.03-13.263-8.32-19.898-12.466-1.166-.725-2.43-1.885-3.635-1.859-8.572.142-16.956,1.477-25.645,4.516,2.397,1.426,4.276,2.397,6,3.59,6.537,4.555,10.678,10.73,11.883,18.634.83,5.482-2.171,7.976-7.257,6.026-7.302-2.812-14.494-5.915-21.744-8.864-1.153-.466-2.469-1.276-3.544-1.075-8.455,1.568-16.502,4.315-24.53,8.948,1.762.615,2.916.985,4.043,1.419,8.229,3.136,14.215,8.624,17.248,16.975,1.963,5.423-.583,8.611-6.052,7.535-7.808-1.522-15.55-3.382-23.338-5.015-1.309-.279-2.968-.681-4.017-.143-7.36,3.758-14.604,7.743-21.887,11.663.162.408.324.823.486,1.231,1.205.207,2.417.395,3.622.615,8.799,1.62,15.796,5.948,20.196,13.891,2.728,4.931.849,8.404-4.51,8.307-7.956-.143-15.913-.609-23.869-.901-1.238-.045-2.767-.305-3.687.279-7.134,4.529-13.885,9.544-19.133,16.813,1.814.318,3.544-.149,5.248-.058,7.589.41,14.153,3.062,19.144,8.536,1.911-.602,3.959-.692,5.851-.084,4.721,1.518,9.263,2.787,13.27,5.006,40.843-62.949,111.735-104.595,192.364-104.595,80.058,0,150.52,41.063,191.495,103.27.952-.669,2.003-1.188,3.13-1.487Z" fill="#0c2344"/>
  </g>
  <g>
    <path d="M447.986,1178.277c11.26,6.069,19.929,14.501,25.998,25.289,6.069,10.793,9.104,23.063,9.104,36.821,0,13.625-3.035,25.897-9.104,36.821-6.069,10.926-14.738,19.524-25.998,25.795-11.263,6.272-24.379,9.408-39.35,9.408h-59.683v-143.24h59.683c14.971,0,28.087,3.035,39.35,9.104ZM428.665,1264.059c5.933-5.528,8.902-13.419,8.902-23.671s-2.969-18.139-8.902-23.671c-5.937-5.529-13.96-8.295-24.076-8.295h-10.723v63.932h10.723c10.116,0,18.139-2.763,24.076-8.295Z" fill="#0c2344"/>
    <path d="M574.938,1290.765h-47.746l-7.081,21.648h-47.14l52.4-143.24h51.793l52.198,143.24h-47.342l-7.081-21.648ZM564.013,1256.978l-12.948-39.856-12.948,39.856h25.897Z" fill="#0c2344"/>
    <path d="M640.993,1301.791c-11.127-8.023-17.165-19.793-18.107-35.304h47.746c.673,8.228,4.315,12.34,10.925,12.34,2.428,0,4.482-.572,6.17-1.719,1.685-1.145,2.529-2.935,2.529-5.362,0-3.369-1.821-6.101-5.462-8.194-3.642-2.089-9.306-4.482-16.995-7.181-9.174-3.238-16.761-6.405-22.761-9.51-6.003-3.101-11.162-7.618-15.477-13.555-4.318-5.934-6.407-13.555-6.272-22.862,0-9.306,2.393-17.228,7.182-23.772,4.786-6.54,11.33-11.496,19.624-14.869,8.295-3.371,17.633-5.058,28.021-5.058,17.532,0,31.46,4.046,41.778,12.139,10.318,8.093,15.746,19.491,16.287,34.191h-48.354c-.136-4.046-1.148-6.945-3.035-8.7-1.891-1.751-4.183-2.629-6.879-2.629-1.89,0-3.439.641-4.654,1.922-1.214,1.283-1.82,3.069-1.82,5.361,0,3.238,1.786,5.902,5.361,7.991,3.572,2.093,9.272,4.622,17.096,7.587,9.034,3.373,16.489,6.611,22.355,9.711,5.867,3.105,10.957,7.42,15.275,12.949,4.315,5.532,6.474,12.476,6.474,20.837,0,8.77-2.159,16.625-6.474,23.571-4.318,6.948-10.59,12.376-18.816,16.287-8.228,3.913-18.006,5.867-29.336,5.867-17.13,0-31.257-4.012-42.385-12.038Z" fill="#0c2344"/>
    <path d="M763.394,1301.791c-11.127-8.023-17.165-19.793-18.107-35.304h47.746c.673,8.228,4.315,12.34,10.925,12.34,2.428,0,4.482-.572,6.17-1.719,1.685-1.145,2.529-2.935,2.529-5.362,0-3.369-1.821-6.101-5.462-8.194-3.642-2.089-9.306-4.482-16.995-7.181-9.174-3.238-16.761-6.405-22.761-9.51-6.003-3.101-11.162-7.618-15.477-13.555-4.318-5.934-6.407-13.555-6.272-22.862,0-9.306,2.393-17.228,7.182-23.772,4.786-6.54,11.33-11.496,19.624-14.869,8.295-3.371,17.633-5.058,28.021-5.058,17.532,0,31.46,4.046,41.778,12.139,10.318,8.093,15.746,19.491,16.287,34.191h-48.354c-.136-4.046-1.148-6.945-3.035-8.7-1.891-1.751-4.183-2.629-6.879-2.629-1.89,0-3.439.641-4.654,1.922-1.214,1.283-1.82,3.069-1.82,5.361,0,3.238,1.786,5.902,5.361,7.991,3.572,2.093,9.272,4.622,17.096,7.587,9.034,3.373,16.489,6.611,22.355,9.711,5.867,3.105,10.957,7.42,15.275,12.949,4.315,5.532,6.474,12.476,6.474,20.837,0,8.77-2.159,16.625-6.474,23.571-4.318,6.948-10.59,12.376-18.816,16.287-8.228,3.913-18.006,5.867-29.336,5.867-17.13,0-31.257-4.012-42.385-12.038Z" fill="#0c2344"/>
    <path d="M1019.221,1312.413l-9.913-9.307c-12.68,7.555-27.585,11.33-44.712,11.33-11.602,0-21.682-1.822-30.246-5.462-8.567-3.642-15.142-8.801-19.726-15.478-4.587-6.677-6.879-14.329-6.879-22.962,0-8.226,2.125-15.747,6.373-22.559,4.248-6.808,10.622-12.575,19.119-17.298-6.205-7.687-9.306-15.78-9.306-24.278,0-7.283,1.922-13.959,5.766-20.029,3.844-6.069,9.474-10.89,16.894-14.465,7.416-3.572,16.251-5.362,26.503-5.362,10.384,0,19.22,1.856,26.503,5.564,7.283,3.712,12.746,8.598,16.387,14.668,3.642,6.069,5.463,12.613,5.463,19.624h-40.868c0-2.561-.743-4.482-2.225-5.765-1.486-1.28-3.237-1.922-5.26-1.922-2.159,0-4.015.641-5.564,1.922-1.552,1.283-2.327,3.069-2.327,5.361,0,4.319,2.965,9.307,8.902,14.972l32.573,31.56c1.887-3.642,3.572-7.754,5.058-12.34l.607-1.822h43.498l-2.023,5.261c-5.128,13.489-11.466,25.491-19.018,36.012l33.786,32.775h-49.365ZM981.388,1276.805l-23.874-22.255c-2.294,1.619-4.015,3.475-5.159,5.564-1.148,2.093-1.72,4.218-1.72,6.374,0,3.509,1.517,6.474,4.552,8.901s7.248,3.642,12.645,3.642c4.855,0,9.373-.74,13.555-2.226Z" fill="#0c2344"/>
    <path d="M1126.75,1301.791c-11.127-8.023-17.165-19.793-18.107-35.304h47.746c.673,8.228,4.315,12.34,10.925,12.34,2.428,0,4.482-.572,6.17-1.719,1.685-1.145,2.529-2.935,2.529-5.362,0-3.369-1.821-6.101-5.462-8.194-3.642-2.089-9.306-4.482-16.995-7.181-9.174-3.238-16.761-6.405-22.761-9.51-6.003-3.101-11.162-7.618-15.477-13.555-4.318-5.934-6.407-13.555-6.272-22.862,0-9.306,2.393-17.228,7.182-23.772,4.786-6.54,11.33-11.496,19.624-14.869,8.295-3.371,17.633-5.058,28.021-5.058,17.532,0,31.46,4.046,41.778,12.139,10.318,8.093,15.746,19.491,16.287,34.191h-48.354c-.136-4.046-1.148-6.945-3.035-8.7-1.891-1.751-4.183-2.629-6.879-2.629-1.89,0-3.439.641-4.654,1.922-1.214,1.283-1.82,3.069-1.82,5.361,0,3.238,1.786,5.902,5.361,7.991,3.572,2.093,9.272,4.622,17.096,7.587,9.034,3.373,16.489,6.611,22.355,9.711,5.867,3.105,10.957,7.42,15.275,12.949,4.315,5.532,6.474,12.476,6.474,20.837,0,8.77-2.159,16.625-6.474,23.571-4.318,6.948-10.59,12.376-18.816,16.287-8.228,3.913-18.006,5.867-29.336,5.867-17.13,0-31.257-4.012-42.385-12.038Z" fill="#0c2344"/>
    <path d="M1268.169,1304.32c-11.264-6.338-20.2-15.104-26.807-26.301-6.61-11.195-9.914-23.804-9.914-37.833s3.303-26.637,9.914-37.834c6.607-11.193,15.543-19.927,26.807-26.2,11.26-6.271,23.636-9.407,37.125-9.407s25.827,3.136,37.024,9.407c11.193,6.272,20.06,15.006,26.604,26.2,6.541,11.197,9.813,23.808,9.813,37.834s-3.272,26.638-9.813,37.833c-6.544,11.197-15.445,19.963-26.705,26.301-11.263,6.341-23.57,9.509-36.923,9.509-13.489,0-25.865-3.168-37.125-9.509ZM1325.929,1263.351c4.856-5.731,7.284-13.455,7.284-23.165,0-9.844-2.428-17.634-7.284-23.368-4.855-5.731-11.734-8.598-20.636-8.598-9.038,0-15.983,2.867-20.839,8.598-4.855,5.734-7.283,13.523-7.283,23.368,0,9.71,2.428,17.434,7.283,23.165,4.856,5.734,11.801,8.598,20.839,8.598,8.902,0,15.781-2.865,20.636-8.598Z" fill="#0c2344"/>
    <path d="M1524.198,1312.413h-44.914l-47.544-72.025v72.025h-44.914v-143.24h44.914l47.544,73.238v-73.238h44.914v143.24Z" fill="#0c2344"/>
    <path d="M1554.038,1301.791c-11.127-8.023-17.165-19.793-18.107-35.304h47.746c.673,8.228,4.315,12.34,10.925,12.34,2.428,0,4.482-.572,6.17-1.719,1.685-1.145,2.529-2.935,2.529-5.362,0-3.369-1.821-6.101-5.462-8.194-3.642-2.089-9.306-4.482-16.995-7.181-9.174-3.238-16.761-6.405-22.761-9.51-6.003-3.101-11.162-7.618-15.477-13.555-4.318-5.934-6.407-13.555-6.272-22.862,0-9.306,2.393-17.228,7.182-23.772,4.786-6.54,11.33-11.496,19.624-14.869,8.295-3.371,17.633-5.058,28.021-5.058,17.532,0,31.46,4.046,41.778,12.139,10.318,8.093,15.746,19.491,16.287,34.191h-48.354c-.136-4.046-1.148-6.945-3.035-8.7-1.891-1.751-4.183-2.629-6.879-2.629-1.89,0-3.439.641-4.654,1.922-1.214,1.283-1.82,3.069-1.82,5.361,0,3.238,1.786,5.902,5.361,7.991,3.572,2.093,9.272,4.622,17.096,7.587,9.034,3.373,16.489,6.611,22.355,9.711,5.867,3.105,10.957,7.42,15.275,12.949,4.315,5.532,6.474,12.476,6.474,20.837,0,8.77-2.159,16.625-6.474,23.571-4.318,6.948-10.59,12.376-18.816,16.287-8.228,3.913-18.006,5.867-29.336,5.867-17.13,0-31.257-4.012-42.385-12.038Z" fill="#0c2344"/>
  </g>
  <g>
    <path d="M364.875,1397.663l-7.202-12.365h-4.772v12.365h-3.948v-30.24h9.762c2.285,0,4.215.391,5.792,1.172,1.576.781,2.755,1.836,3.536,3.167s1.172,2.849,1.172,4.555c0,2.083-.601,3.92-1.801,5.511-1.201,1.591-3.001,2.647-5.401,3.167l7.592,12.668h-4.729ZM352.901,1382.131h5.814c2.14,0,3.745-.527,4.816-1.584,1.07-1.055,1.605-2.465,1.605-4.23,0-1.793-.528-3.18-1.584-4.164s-2.668-1.475-4.837-1.475h-5.814v11.453Z" fill="#0c2344"/>
    <path d="M390.039,1395.994c-2.314-1.316-4.144-3.153-5.489-5.511-1.345-2.357-2.017-5.011-2.017-7.961s.673-5.603,2.017-7.961c1.345-2.357,3.174-4.193,5.489-5.509,2.314-1.316,4.873-1.974,7.679-1.974,2.834,0,5.408.658,7.722,1.974,2.314,1.316,4.136,3.145,5.467,5.488,1.33,2.342,1.995,5.004,1.995,7.983s-.665,5.64-1.995,7.984c-1.331,2.342-3.153,4.172-5.467,5.488-2.314,1.316-4.888,1.974-7.722,1.974-2.806,0-5.366-.658-7.679-1.974ZM403.423,1393.065c1.692-.984,3.022-2.386,3.991-4.209.969-1.822,1.453-3.932,1.453-6.334,0-2.43-.485-4.548-1.453-6.355-.969-1.807-2.293-3.203-3.97-4.187s-3.587-1.476-5.726-1.476-4.05.493-5.727,1.476c-1.678.984-3.001,2.379-3.97,4.187s-1.453,3.926-1.453,6.355c0,2.402.484,4.512,1.453,6.334.969,1.823,2.3,3.225,3.992,4.209s3.593,1.475,5.705,1.475,4.013-.491,5.705-1.475Z" fill="#0c2344"/>
    <path d="M432.817,1395.994c-2.314-1.316-4.144-3.153-5.489-5.511-1.345-2.357-2.017-5.011-2.017-7.961s.673-5.603,2.017-7.961c1.345-2.357,3.174-4.193,5.489-5.509,2.314-1.316,4.873-1.974,7.679-1.974,2.834,0,5.408.658,7.722,1.974,2.314,1.316,4.136,3.145,5.467,5.488,1.33,2.342,1.995,5.004,1.995,7.983s-.665,5.64-1.995,7.984c-1.331,2.342-3.153,4.172-5.467,5.488-2.314,1.316-4.888,1.974-7.722,1.974-2.806,0-5.366-.658-7.679-1.974ZM446.202,1393.065c1.692-.984,3.022-2.386,3.991-4.209.969-1.822,1.453-3.932,1.453-6.334,0-2.43-.485-4.548-1.453-6.355-.969-1.807-2.293-3.203-3.97-4.187s-3.587-1.476-5.726-1.476-4.05.493-5.727,1.476c-1.678.984-3.001,2.379-3.97,4.187s-1.453,3.926-1.453,6.355c0,2.402.484,4.512,1.453,6.334.969,1.823,2.3,3.225,3.992,4.209s3.593,1.475,5.705,1.475,4.013-.491,5.705-1.475Z" fill="#0c2344"/>
    <path d="M488.177,1367.424v3.211h-8.243v27.029h-3.948v-27.029h-8.287v-3.211h20.478Z" fill="#0c2344"/>
    <path d="M505.661,1370.634v10.109h11.02v3.253h-11.02v10.414h12.321v3.253h-16.27v-30.283h16.27v3.254h-12.321Z" fill="#0c2344"/>
    <path d="M550.63,1369.268c2.414,1.229,4.266,2.986,5.554,5.271,1.286,2.285,1.93,4.974,1.93,8.07s-.644,5.778-1.93,8.047c-1.288,2.271-3.139,4.007-5.554,5.206-2.416,1.201-5.272,1.801-8.569,1.801h-9.415v-30.24h9.415c3.297,0,6.153.614,8.569,1.844ZM550.999,1391.308c2.054-2.068,3.08-4.968,3.08-8.699,0-3.76-1.035-6.696-3.102-8.807-2.068-2.112-5.04-3.167-8.915-3.167h-5.467v23.776h5.467c3.905,0,6.883-1.034,8.937-3.102Z" fill="#0c2344"/>
    <path d="M596.206,1367.424v30.24h-3.948v-30.24h3.948Z" fill="#0c2344"/>
    <path d="M635.384,1397.663h-3.948l-15.879-24.079v24.079h-3.948v-30.283h3.948l15.879,24.037v-24.037h3.948v30.283Z" fill="#0c2344"/>
    <path d="M689.659,1367.424v3.211h-8.243v27.029h-3.948v-27.029h-8.287v-3.211h20.478Z" fill="#0c2344"/>
    <path d="M719.117,1397.663l-7.202-12.365h-4.772v12.365h-3.948v-30.24h9.762c2.285,0,4.215.391,5.792,1.172,1.576.781,2.755,1.836,3.536,3.167s1.172,2.849,1.172,4.555c0,2.083-.601,3.92-1.801,5.511-1.201,1.591-3.001,2.647-5.401,3.167l7.592,12.668h-4.729ZM707.143,1382.131h5.814c2.14,0,3.745-.527,4.816-1.584,1.07-1.055,1.605-2.465,1.605-4.23,0-1.793-.528-3.18-1.584-4.164s-2.668-1.475-4.837-1.475h-5.814v11.453Z" fill="#0c2344"/>
    <path d="M756.125,1390.939h-13.189l-2.43,6.725h-4.165l10.933-30.066h4.555l10.89,30.066h-4.165l-2.43-6.725ZM754.997,1387.728l-5.466-15.271-5.467,15.271h10.933Z" fill="#0c2344"/>
    <path d="M794.153,1369.268c2.414,1.229,4.266,2.986,5.554,5.271,1.286,2.285,1.93,4.974,1.93,8.07s-.644,5.778-1.93,8.047c-1.288,2.271-3.139,4.007-5.554,5.206-2.416,1.201-5.272,1.801-8.569,1.801h-9.415v-30.24h9.415c3.297,0,6.153.614,8.569,1.844ZM794.522,1391.308c2.054-2.068,3.08-4.968,3.08-8.699,0-3.76-1.035-6.696-3.102-8.807-2.068-2.112-5.04-3.167-8.915-3.167h-5.467v23.776h5.467c3.905,0,6.883-1.034,8.937-3.102Z" fill="#0c2344"/>
    <path d="M819.468,1367.424v30.24h-3.948v-30.24h3.948Z" fill="#0c2344"/>
    <path d="M853.482,1367.424v3.211h-8.243v27.029h-3.948v-27.029h-8.287v-3.211h20.478Z" fill="#0c2344"/>
    <path d="M870.966,1367.424v30.24h-3.948v-30.24h3.948Z" fill="#0c2344"/>
    <path d="M892.398,1395.994c-2.314-1.316-4.144-3.153-5.489-5.511-1.345-2.357-2.017-5.011-2.017-7.961s.673-5.603,2.017-7.961c1.345-2.357,3.174-4.193,5.489-5.509,2.314-1.316,4.873-1.974,7.679-1.974,2.834,0,5.408.658,7.722,1.974,2.314,1.316,4.136,3.145,5.467,5.488,1.33,2.342,1.995,5.004,1.995,7.983s-.665,5.64-1.995,7.984c-1.331,2.342-3.153,4.172-5.467,5.488-2.314,1.316-4.888,1.974-7.722,1.974-2.806,0-5.366-.658-7.679-1.974ZM905.782,1393.065c1.692-.984,3.022-2.386,3.991-4.209.969-1.822,1.453-3.932,1.453-6.334,0-2.43-.485-4.548-1.453-6.355-.969-1.807-2.293-3.203-3.97-4.187s-3.587-1.476-5.726-1.476-4.05.493-5.727,1.476c-1.678.984-3.001,2.379-3.97,4.187s-1.453,3.926-1.453,6.355c0,2.402.484,4.512,1.453,6.334.969,1.823,2.3,3.225,3.992,4.209s3.593,1.475,5.705,1.475,4.013-.491,5.705-1.475Z" fill="#0c2344"/>
    <path d="M952.921,1397.663h-3.948l-15.879-24.079v24.079h-3.948v-30.283h3.948l15.879,24.037v-24.037h3.948v30.283Z" fill="#0c2344"/>
    <path d="M972.401,1392.196l-4.859,11.671h-2.647l3.167-11.671h4.339Z" fill="#0c2344"/>
    <path d="M1023.835,1369.268c2.414,1.229,4.266,2.986,5.554,5.271,1.286,2.285,1.93,4.974,1.93,8.07s-.644,5.778-1.93,8.047c-1.288,2.271-3.139,4.007-5.554,5.206-2.416,1.201-5.272,1.801-8.569,1.801h-9.415v-30.24h9.415c3.297,0,6.153.614,8.569,1.844ZM1024.204,1391.308c2.054-2.068,3.08-4.968,3.08-8.699,0-3.76-1.035-6.696-3.102-8.807-2.068-2.112-5.04-3.167-8.915-3.167h-5.467v23.776h5.467c3.905,0,6.883-1.034,8.937-3.102Z" fill="#0c2344"/>
    <path d="M1061.124,1397.663l-7.202-12.365h-4.772v12.365h-3.948v-30.24h9.762c2.285,0,4.215.391,5.792,1.172,1.576.781,2.755,1.836,3.536,3.167s1.172,2.849,1.172,4.555c0,2.083-.601,3.92-1.801,5.511-1.201,1.591-3.001,2.647-5.401,3.167l7.592,12.668h-4.729ZM1049.15,1382.131h5.814c2.14,0,3.745-.527,4.816-1.584,1.07-1.055,1.605-2.465,1.605-4.23,0-1.793-.528-3.18-1.584-4.164s-2.668-1.475-4.837-1.475h-5.814v11.453Z" fill="#0c2344"/>
    <path d="M1084.206,1367.424v30.24h-3.948v-30.24h3.948Z" fill="#0c2344"/>
    <path d="M1124.597,1367.424l-11.411,30.24h-4.555l-11.411-30.24h4.208l9.501,26.076,9.502-26.076h4.165Z" fill="#0c2344"/>
    <path d="M1141.561,1370.634v10.109h11.02v3.253h-11.02v10.414h12.321v3.253h-16.27v-30.283h16.27v3.254h-12.321Z" fill="#0c2344"/>
    <path d="M1192.322,1397.663h-3.948l-15.879-24.079v24.079h-3.948v-30.283h3.948l15.879,24.037v-24.037h3.948v30.283Z" fill="#0c2344"/>
    <path d="M1246.142,1383.433c.911.724,1.634,1.621,2.169,2.69.535,1.07.802,2.212.802,3.428,0,1.533-.391,2.914-1.171,4.143-.781,1.23-1.917,2.198-3.406,2.906-1.49.71-3.247,1.063-5.271,1.063h-11.281v-30.24h10.847c2.054,0,3.803.34,5.25,1.02,1.446.681,2.531,1.598,3.254,2.755s1.085,2.459,1.085,3.905c0,1.794-.485,3.276-1.454,4.447-.969,1.17-2.249,2.017-3.84,2.538,1.099.173,2.105.622,3.015,1.344ZM1231.933,1380.483h6.638c1.851,0,3.282-.434,4.295-1.302,1.012-.867,1.519-2.068,1.519-3.601s-.506-2.733-1.519-3.6c-1.013-.869-2.473-1.302-4.382-1.302h-6.551v9.804ZM1243.517,1393.021c1.099-.926,1.649-2.212,1.649-3.861,0-1.678-.579-3-1.736-3.971-1.157-.968-2.705-1.452-4.642-1.452h-6.855v10.673h6.985c1.967,0,3.499-.463,4.599-1.389Z" fill="#0c2344"/>
    <path d="M1284.43,1367.424l-9.849,18.829v11.411h-3.948v-11.411l-9.892-18.829h4.382l7.463,15.315,7.462-15.315h4.382Z" fill="#0c2344"/>
    <path d="M1321.481,1370.634v10.109h11.02v3.253h-11.02v10.414h12.321v3.253h-16.27v-30.283h16.27v3.254h-12.321Z" fill="#0c2344"/>
    <path d="M1360.831,1382.565l9.285,15.098h-4.469l-7.246-11.801-6.898,11.801h-4.382l9.241-15.098-9.285-15.142h4.426l7.289,11.845,6.942-11.845h4.425l-9.328,15.142Z" fill="#0c2344"/>
    <path d="M1384.606,1374.56c1.33-2.357,3.145-4.201,5.444-5.532,2.3-1.329,4.852-1.995,7.658-1.995,3.297,0,6.175.796,8.633,2.386,2.458,1.591,4.252,3.848,5.38,6.768h-4.729c-.839-1.822-2.046-3.224-3.623-4.208-1.577-.984-3.464-1.476-5.662-1.476-2.112,0-4.007.493-5.684,1.476s-2.994,2.379-3.948,4.187c-.955,1.807-1.432,3.926-1.432,6.355,0,2.402.477,4.506,1.432,6.313.954,1.807,2.27,3.204,3.948,4.187,1.678.984,3.572,1.475,5.684,1.475,2.197,0,4.085-.483,5.662-1.454,1.576-.968,2.784-2.363,3.623-4.187h4.729c-1.128,2.893-2.922,5.128-5.38,6.704-2.459,1.577-5.337,2.365-8.633,2.365-2.806,0-5.358-.658-7.658-1.974-2.299-1.316-4.114-3.146-5.444-5.488-1.331-2.344-1.996-4.99-1.996-7.94s.665-5.603,1.996-7.961Z" fill="#0c2344"/>
    <path d="M1430.205,1370.634v10.109h11.02v3.253h-11.02v10.414h12.321v3.253h-16.27v-30.283h16.27v3.254h-12.321Z" fill="#0c2344"/>
    <path d="M1461.138,1394.452h10.586v3.211h-14.535v-30.24h3.948v27.029Z" fill="#0c2344"/>
    <path d="M1488.558,1394.452h10.586v3.211h-14.535v-30.24h3.948v27.029Z" fill="#0c2344"/>
    <path d="M1515.977,1370.634v10.109h11.02v3.253h-11.02v10.414h12.321v3.253h-16.27v-30.283h16.27v3.254h-12.321Z" fill="#0c2344"/>
    <path d="M1566.738,1397.663h-3.948l-15.879-24.079v24.079h-3.948v-30.283h3.948l15.879,24.037v-24.037h3.948v30.283Z" fill="#0c2344"/>
    <path d="M1582.661,1374.56c1.33-2.357,3.145-4.201,5.444-5.532,2.3-1.329,4.852-1.995,7.658-1.995,3.297,0,6.175.796,8.633,2.386,2.458,1.591,4.252,3.848,5.38,6.768h-4.729c-.839-1.822-2.046-3.224-3.623-4.208-1.577-.984-3.464-1.476-5.662-1.476-2.112,0-4.007.493-5.684,1.476s-2.994,2.379-3.948,4.187c-.955,1.807-1.432,3.926-1.432,6.355,0,2.402.477,4.506,1.432,6.313.954,1.807,2.27,3.204,3.948,4.187,1.678.984,3.572,1.475,5.684,1.475,2.197,0,4.085-.483,5.662-1.454,1.576-.968,2.784-2.363,3.623-4.187h4.729c-1.128,2.893-2.922,5.128-5.38,6.704-2.459,1.577-5.337,2.365-8.633,2.365-2.806,0-5.358-.658-7.658-1.974-2.299-1.316-4.114-3.146-5.444-5.488-1.331-2.344-1.996-4.99-1.996-7.94s.665-5.603,1.996-7.961Z" fill="#0c2344"/>
    <path d="M1628.259,1370.634v10.109h11.02v3.253h-11.02v10.414h12.321v3.253h-16.27v-30.283h16.27v3.254h-12.321Z" fill="#0c2344"/>
  </g>
</svg>